{"title":"Water.For.Elephants.720p.BRRip.x264.Feel-Free","uid":6621373,"size":3015142710,"categoryP":"video","categoryS":"hd___movies","magnet":"?xt=urn:btih:9bfd744ec33b003d8f029e9604b9b37179bc0c0c&amp;dn=Water.For.Elephants.720p.BRRip.x264.Feel-Free&amp;tr=udp%3A%2F%2Ftracker.openbittorrent.com%3A80&amp;tr=udp%3A%2F%2Fopen.demonii.com%3A1337&amp;tr=udp%3A%2F%2Ftracker.coppersurfer.tk%3A6969&amp;tr=udp%3A%2F%2Fexodus.desync.com%3A6969","seeders":1,"leechers":1,"uploader":"SnowCrash03","files":-1,"time":1314008747,"description":"Water.For.Elephants.720p.BRRip.x264.Feel-Free\n\nGenre: Drama | Romance\n Language: English\n IMDb: http://www.imdb.com/title/tt1067583/\n Source: BluRay.x264-MCHD Thanks!\n Subtitles: Romana\n \nFormat : MPEG-4\n Format profile : Base Media\n Codec ID : isom\n File size : 2.80 GiB\n Duration : 2h 0mn\n Overall bit rate : 3 331 Kbps\n \nVideo\n ID : 1\n Format : AVC\n Format/Info : Advanced Video Codec\n Format profile : &lt;a class=&quot;__cf_email__&quot; href=&quot;/cdn-cgi/l/email-protection&quot; data-cfemail=&quot;8fc7e6e8e7cfc3bba1be&quot;&gt;[email&amp;#160;protected]&lt;/a&gt;&lt;script cf-hash='f9e31' type=&quot;text/javascript&quot;&gt;\n/* &lt;![CDATA[ */!function(){try{var t=&quot;currentScript&quot;in document?document.currentScript:function(){for(var t=document.getElementsByTagName(&quot;script&quot;),e=t.length;e--;)if(t[e].getAttribute(&quot;cf-hash&quot;))return t[e]}();if(t&amp;&amp;t.previousSibling){var e,r,n,i,c=t.previousSibling,a=c.getAttribute(&quot;data-cfemail&quot;);if(a){for(e=&quot;&quot;,r=parseInt(a.substr(0,2),16),n=2;a.length-n;n+=2)i=parseInt(a.substr(n,2),16)^r,e+=String.fromCharCode(i);e=document.createTextNode(e),c.parentNode.replaceChild(e,c)}}}catch(u){}}();/* ]]&gt; */&lt;/script&gt;\n Format settings, CABAC : Yes\n Format settings, ReFrames : 3 frames\n Codec ID : avc1\n Codec ID/Info : Advanced Video Coding\n Duration : 2h 0mn\n Bit rate mode : Variable\n Bit rate : 3 000 Kbps\n Maximum bit rate : 12.5 Mbps\n Width : 1 280 pixels\n Height : 544 pixels\n Display aspect ratio : 2.35:1\n Frame rate mode : Constant\n Frame rate : 23.976 fps\n Color space : YUV\n Chroma subsampling : 4:2:0\n Bit depth : 8 bits\n Scan type : Progressive\n Bits/(Pixel*Frame) : 0.180\n Stream size : 2.43 GiB (87%)\n Writing library : x264\n \nAudio\n ID : 2\n Format : AAC\n Format/Info : Advanced Audio Codec\n Format version : Version 4\n Format profile : LC\n Format settings, SBR : No\n Codec ID : 40\n Duration : 2h 0mn\n Bit rate mode : Variable\n Bit rate : 440 Kbps\n Maximum bit rate : 521 Kbps\n Channel(s) : 6 channels\n Channel positions : Front: L C R, Side: L R, LFE\n Sampling rate : 48.0 KHz\n Stream size : 379 MiB (13%)\n \nPlot:\nA veterinary student abandons his studies after his parents are killed and joins a traveling circus as their vet. ","torrent":{"xt":"urn:btih:9bfd744ec33b003d8f029e9604b9b37179bc0c0c","amp;dn":"Water.For.Elephants.720p.BRRip.x264.Feel-Free","amp;tr":["udp%3A%2F%2Ftracker.openbittorrent.com%3A80","udp%3A%2F%2Fopen.demonii.com%3A1337","udp%3A%2F%2Ftracker.coppersurfer.tk%3A6969","udp%3A%2F%2Fexodus.desync.com%3A6969"],"infoHash":"9bfd744ec33b003d8f029e9604b9b37179bc0c0c","infoHashBuffer":{"type":"Buffer","data":[155,253,116,78,195,59,0,61,143,2,158,150,4,185,179,113,121,188,12,12]},"announce":[],"urlList":[]}}